<?xml version="1.0" standalone="no"?>
<!DOCTYPE svg PUBLIC "-//W3C//DTD SVG 20010904//EN"
 "http://www.w3.org/TR/2001/REC-SVG-20010904/DTD/svg10.dtd">
<svg version="1.0" xmlns="http://www.w3.org/2000/svg"
 width="1600.000000pt" height="581.000000pt" viewBox="0 0 1600.000000 581.000000"
 preserveAspectRatio="xMidYMid meet">

<g transform="translate(0.000000,581.000000) scale(0.100000,-0.100000)"
fill="#000000" stroke="none">
<path d="M2988 4880 c-781 -98 -1413 -582 -1682 -1287 -93 -244 -141 -590
-116 -838 55 -558 328 -1049 771 -1385 618 -471 1467 -553 2174 -210 100 48
297 166 315 189 3 3 37 32 75 63 100 81 149 133 142 152 -11 27 -30 18 -102
-46 -275 -244 -587 -399 -957 -474 -152 -31 -457 -43 -613 -25 -55 6 -101 13
-103 15 -2 2 8 62 22 132 59 307 58 664 -5 865 -22 71 -32 130 -39 221 -5 67
-13 139 -19 158 -14 43 -15 190 -1 190 12 0 24 -46 61 -226 16 -78 61 -249
100 -379 77 -261 78 -267 38 -383 -16 -47 -19 -80 -18 -184 2 -128 2 -128 26
-128 21 0 23 -4 18 -22 -4 -13 -13 -33 -21 -45 -17 -28 -17 -43 0 -66 13 -17
17 -17 43 -4 56 30 102 90 132 173 l30 81 -9 334 c-11 410 -30 573 -90 768
-14 43 -20 92 -20 156 0 52 -6 129 -12 172 -14 84 -15 177 -3 313 17 204 -53
342 -197 385 -27 8 -81 34 -121 58 -40 24 -102 61 -139 81 -74 40 -81 47 -72
70 5 12 21 16 69 16 81 0 99 15 90 76 -3 25 -2 45 5 49 5 3 10 24 10 46 0 34
3 39 23 39 13 0 32 9 42 20 17 18 16 21 -24 81 -40 60 -41 64 -35 120 11 96
-24 205 -83 261 -96 92 -316 103 -443 23 -80 -51 -129 -171 -116 -284 6 -53
20 -87 72 -181 22 -39 24 -53 19 -105 -3 -33 -13 -88 -22 -122 -15 -62 -16
-63 -82 -99 -36 -21 -100 -59 -142 -86 -42 -26 -99 -55 -126 -63 -116 -35
-174 -113 -194 -265 -9 -66 -9 -106 1 -183 12 -86 11 -114 -3 -220 -10 -67
-17 -162 -17 -212 0 -68 -6 -109 -25 -168 -49 -153 -95 -553 -66 -571 8 -5 11
8 11 42 0 133 37 389 74 517 17 57 26 118 30 210 3 72 13 169 21 217 14 76 14
97 1 177 -17 106 -8 237 23 305 26 58 89 112 156 131 30 9 78 32 105 50 27 18
90 57 140 86 50 28 95 59 99 68 18 33 43 187 39 233 -4 32 -17 68 -43 110 -34
54 -39 71 -43 140 -6 111 10 161 72 223 73 73 178 99 298 75 129 -25 184 -78
214 -206 14 -60 16 -81 7 -105 -14 -36 -6 -61 39 -132 33 -52 29 -67 -18 -67
-17 0 -23 -8 -29 -42 -4 -24 -9 -66 -10 -93 -2 -73 -7 -77 -82 -73 -70 3 -83
-5 -83 -54 0 -23 13 -33 113 -88 61 -35 126 -73 143 -85 17 -13 50 -29 75 -35
131 -35 188 -114 204 -287 4 -44 2 -98 -8 -153 -10 -58 -12 -102 -7 -140 5
-30 13 -86 19 -125 6 -38 11 -113 11 -166 0 -69 6 -112 20 -153 27 -80 48
-184 64 -329 18 -153 30 -493 16 -457 -8 20 -9 14 -5 -25 17 -182 17 -215 5
-230 -22 -27 -48 -12 -61 36 l-9 34 5 -38 c6 -53 20 -68 52 -56 14 5 28 8 30
5 9 -9 -58 -181 -80 -204 -40 -43 -77 -66 -90 -53 -8 8 -6 16 6 29 9 10 17 25
17 33 0 8 11 32 25 54 26 42 32 102 15 136 -19 34 -38 22 -45 -28 -12 -91 -20
-77 -23 40 -2 96 1 130 18 183 11 37 20 83 20 104 0 21 -30 137 -66 257 -36
120 -83 299 -105 398 -76 351 -80 367 -96 351 -14 -13 -16 -314 -3 -349 7 -18
15 -88 20 -157 6 -95 15 -148 38 -220 65 -208 64 -571 -4 -887 -9 -40 -13 -77
-9 -83 10 -16 -14 -12 -157 24 -627 159 -1151 624 -1364 1213 -175 483 -142
1021 90 1477 278 546 807 930 1436 1042 131 24 530 27 650 6 433 -77 786 -253
1084 -541 232 -225 392 -481 490 -782 36 -112 47 -135 65 -137 37 -6 35 25 -8
156 -160 481 -478 866 -923 1118 -192 110 -429 194 -658 234 -138 25 -468 36
-592 20z"/>
<path d="M10570 4325 l0 -45 40 0 40 0 0 45 0 45 -40 0 -40 0 0 -45z"/>
<path d="M8177 4354 c-4 -4 -7 -92 -7 -196 l0 -188 125 0 125 0 0 40 0 40 -75
0 -74 0 -3 153 -3 152 -40 3 c-23 2 -44 0 -48 -4z"/>
<path d="M8810 4166 l0 -196 25 0 c14 0 28 7 31 15 5 13 10 12 31 -5 16 -12
41 -20 65 -20 84 0 137 103 108 210 -17 62 -49 90 -104 90 -25 0 -48 -6 -53
-12 -5 -8 -10 11 -13 47 l-5 60 -42 3 -43 3 0 -195z m170 8 c32 -83 -15 -185
-65 -144 -19 16 -21 140 -3 158 21 21 58 14 68 -14z"/>
<path d="M11610 4306 c0 -52 -11 -78 -25 -56 -3 5 -26 10 -51 10 -48 0 -77
-20 -94 -66 -15 -39 -12 -141 5 -174 30 -58 87 -76 135 -43 17 12 25 13 28 5
2 -7 21 -12 43 -12 l39 0 0 195 0 195 -40 0 -40 0 0 -54z m-5 -155 c9 -55 -3
-109 -28 -123 -17 -9 -24 -7 -40 13 -25 31 -20 135 8 155 27 20 52 1 60 -45z"/>
<path d="M12270 4165 l0 -195 45 0 45 0 0 76 0 75 32 -3 c31 -3 35 -8 62 -75
l30 -73 53 0 52 0 -35 82 -35 81 31 32 c24 25 30 39 30 76 0 91 -48 119 -205
119 l-105 0 0 -195z m184 115 c20 -7 26 -17 26 -38 0 -40 -17 -52 -72 -52
l-48 0 0 43 c0 24 3 47 7 50 9 10 58 8 87 -3z"/>
<path d="M13300 4166 l0 -196 39 0 39 0 4 101 c2 85 6 103 22 114 13 10 24 11
37 4 17 -8 19 -23 19 -114 l0 -105 45 0 45 0 0 119 c0 105 -2 121 -21 145 -17
22 -28 26 -69 26 -27 0 -52 -4 -55 -10 -16 -26 -26 -6 -24 48 l3 57 -42 3 -42
3 0 -195z"/>
<path d="M14490 4165 l0 -195 45 0 44 0 3 101 c3 91 5 103 24 116 19 12 24 12
38 -2 13 -13 16 -38 16 -116 l0 -99 43 0 42 0 -5 131 c-4 114 -7 132 -24 145
-23 16 -102 19 -111 4 -15 -25 -25 -5 -25 50 l0 60 -45 0 -45 0 0 -195z"/>
<path d="M10068 4343 c-25 -4 -28 -8 -28 -44 0 -34 -3 -39 -23 -39 -31 0 -34
-4 -29 -40 3 -21 10 -30 23 -30 17 0 19 -8 19 -90 0 -84 2 -93 25 -116 21 -21
33 -25 77 -22 51 3 52 4 52 33 0 25 -5 31 -29 35 -30 5 -30 5 -33 83 l-3 77
31 0 c28 0 30 3 30 35 0 32 -2 35 -29 35 -28 0 -30 3 -33 42 -3 44 -7 47 -50
41z"/>
<path d="M8519 4245 c-21 -12 -56 -63 -47 -70 2 -1 20 -5 41 -8 29 -4 39 -2
44 9 14 37 83 33 83 -4 0 -13 -14 -20 -61 -29 -92 -18 -135 -70 -109 -133 20
-49 85 -64 143 -34 21 12 32 13 35 5 2 -6 22 -11 45 -11 l42 0 -5 117 c-7 132
-10 145 -46 162 -34 15 -133 13 -165 -4z m121 -169 c0 -31 -26 -58 -54 -54
-30 4 -33 42 -4 62 34 24 58 21 58 -8z"/>
<path d="M9186 4239 c-37 -29 -56 -71 -56 -124 0 -92 53 -155 130 -155 82 0
140 63 140 153 0 93 -50 147 -135 147 -38 0 -60 -6 -79 -21z m119 -92 c13 -84
-24 -152 -62 -114 -26 26 -25 143 1 162 29 22 54 2 61 -48z"/>
<path d="M9470 4115 l0 -145 45 0 45 0 0 76 c0 84 10 111 46 124 20 8 24 16
24 50 0 34 -3 40 -22 40 -12 0 -30 -7 -40 -17 -17 -15 -18 -15 -18 0 0 13 -9
17 -40 17 l-40 0 0 -145z"/>
<path d="M9729 4245 c-21 -12 -56 -63 -47 -70 2 -1 20 -5 41 -8 28 -4 39 -2
44 9 15 40 83 36 83 -5 0 -14 -13 -20 -62 -29 -108 -20 -149 -92 -89 -153 35
-35 81 -38 129 -9 26 16 32 17 32 5 0 -11 12 -15 43 -15 l42 0 -6 127 c-4 71
-7 129 -8 130 0 1 -14 9 -31 18 -36 19 -136 19 -171 0z m121 -168 c0 -35 -22
-59 -51 -55 -33 4 -38 41 -7 62 33 24 58 21 58 -7z"/>
<path d="M10270 4232 c-60 -61 -62 -168 -5 -231 31 -34 37 -36 93 -36 50 0 65
4 87 25 56 51 69 124 36 196 -26 58 -54 74 -124 74 -51 0 -62 -4 -87 -28z
m120 -51 c5 -11 10 -43 10 -71 0 -28 -5 -60 -10 -71 -14 -25 -46 -25 -60 0
-14 27 -13 134 2 149 18 18 46 14 58 -7z"/>
<path d="M10570 4115 l0 -145 40 0 40 0 0 145 0 145 -40 0 -40 0 0 -145z"/>
<path d="M10740 4258 c0 -2 -2 -67 -3 -146 l-2 -142 43 0 42 0 0 58 c0 81 16
131 46 142 20 8 24 16 24 50 0 32 -4 40 -19 40 -10 0 -24 -7 -32 -16 -11 -14
-13 -14 -21 0 -6 10 -23 16 -43 16 -19 0 -35 -1 -35 -2z"/>
<path d="M10995 4238 c-80 -63 -71 -213 16 -260 62 -33 148 -16 183 36 24 37
14 56 -28 56 -25 0 -36 -5 -41 -19 -8 -25 -31 -34 -55 -21 -25 13 -44 50 -33
61 4 4 46 9 93 11 l85 3 -3 35 c-5 45 -35 93 -67 108 -43 20 -119 15 -150 -10z
m125 -68 c0 -17 -7 -20 -40 -20 -46 0 -54 19 -18 44 26 18 58 5 58 -24z"/>
<path d="M11816 4239 c-38 -30 -56 -71 -56 -130 0 -116 103 -182 206 -133 35
17 70 66 59 84 -3 6 -21 10 -40 10 -25 0 -35 -5 -40 -19 -14 -46 -78 -28 -87
24 -3 19 3 20 85 23 l87 3 0 30 c0 75 -57 129 -135 129 -38 0 -60 -6 -79 -21z
m124 -69 c0 -17 -7 -20 -40 -20 -39 0 -49 11 -32 36 20 30 72 18 72 -16z"/>
<path d="M12683 4226 c-34 -31 -37 -39 -41 -98 -7 -114 45 -173 147 -165 47 3
59 9 88 41 40 43 39 60 -4 64 -23 2 -38 -4 -57 -22 -14 -14 -30 -26 -36 -26
-17 0 -50 39 -50 60 0 19 7 20 90 20 90 0 90 0 90 25 0 39 -25 89 -55 113 -21
16 -41 22 -81 22 -48 0 -59 -4 -91 -34z m135 -60 c3 -13 -5 -16 -42 -16 -51 0
-56 10 -25 41 18 18 23 19 42 6 12 -8 23 -22 25 -31z"/>
<path d="M13029 4243 c-78 -48 -89 -181 -20 -247 39 -37 110 -46 161 -19 34
17 74 78 64 95 -9 14 -84 9 -84 -6 0 -22 -28 -39 -54 -32 -29 7 -42 54 -32
111 11 57 67 70 86 19 8 -20 14 -22 47 -17 21 3 39 7 41 8 8 6 -21 59 -44 80
-22 21 -37 25 -83 25 -34 0 -66 -7 -82 -17z"/>
<path d="M13665 4229 c-80 -71 -67 -207 25 -254 64 -33 153 -7 184 53 18 35
13 42 -27 42 -19 0 -38 -9 -53 -25 -13 -14 -28 -25 -34 -25 -17 0 -50 39 -50
60 0 19 7 20 90 20 90 0 90 0 90 25 0 39 -25 89 -55 113 -21 16 -41 22 -81 22
-45 0 -59 -5 -89 -31z m125 -44 c0 -2 3 -10 6 -19 5 -13 -2 -16 -40 -16 -50 0
-57 9 -26 40 16 16 25 18 40 10 11 -6 20 -12 20 -15z"/>
<path d="M13960 4115 l0 -145 40 0 40 0 0 58 c0 81 16 131 46 142 20 8 24 16
24 50 0 45 -19 53 -52 23 -17 -15 -18 -15 -18 0 0 13 -9 17 -40 17 l-40 0 0
-145z"/>
<path d="M14231 4247 c-85 -43 -96 -211 -17 -262 64 -42 171 -23 201 36 25 47
20 59 -23 59 -32 0 -41 -5 -50 -25 -14 -31 -56 -34 -72 -6 -11 22 -14 90 -4
115 4 9 15 21 26 27 15 8 24 5 46 -19 22 -24 33 -28 60 -24 30 4 33 7 27 31
-3 14 -19 38 -36 54 -24 22 -38 27 -82 27 -28 0 -63 -6 -76 -13z"/>
<path d="M14865 4238 c-54 -43 -72 -142 -37 -207 46 -87 184 -95 236 -16 10
15 15 33 12 41 -7 20 -76 19 -76 -1 0 -8 -9 -19 -21 -25 -28 -16 -69 11 -69
45 0 24 2 24 88 27 l87 3 -3 35 c-5 45 -35 93 -67 108 -43 20 -119 15 -150
-10z m125 -58 c13 -24 4 -30 -42 -30 -44 0 -51 20 -17 44 24 17 45 12 59 -14z"/>
<path d="M2275 4113 c9 -16 32 -52 50 -82 19 -30 32 -57 30 -62 -3 -4 -12 -67
-20 -140 -8 -73 -19 -137 -26 -143 -8 -8 -10 -6 -7 8 1 10 -3 21 -9 23 -10 4
-13 -16 -13 -79 0 -57 -3 -78 -10 -68 -5 8 -10 39 -10 68 0 46 -2 52 -21 52
-21 0 -22 -3 -16 -76 7 -74 -5 -95 -18 -34 -4 17 -13 30 -21 30 -11 0 -13 -6
-8 -22 15 -47 11 -52 -56 -70 -99 -27 -150 -58 -194 -116 l-38 -51 -30 15
c-27 14 -32 14 -54 -1 -21 -13 -24 -23 -22 -68 l1 -52 6 55 c5 49 9 55 31 58
14 2 33 -3 44 -11 18 -13 18 -16 2 -65 -10 -28 -26 -99 -36 -158 -13 -75 -26
-117 -44 -143 -28 -41 -46 -84 -45 -109 0 -9 7 3 15 28 8 25 25 59 39 75 l25
30 0 -74 c0 -69 -4 -82 -65 -217 -36 -79 -74 -176 -84 -216 -24 -87 -51 -232
-50 -262 0 -11 11 31 24 94 33 165 50 216 111 343 l55 112 -5 -75 c-3 -49 -20
-123 -49 -215 -25 -77 -50 -165 -56 -195 -15 -73 -28 -248 -20 -261 3 -6 9 36
12 93 5 103 43 298 58 298 5 0 10 -37 12 -82 3 -67 4 -61 3 27 0 80 5 125 18
164 21 62 29 56 45 -33 15 -82 14 -151 -5 -216 -9 -30 -20 -77 -24 -105 -5
-27 -21 -90 -37 -140 -17 -49 -42 -134 -58 -187 -25 -88 -27 -101 -14 -125
l14 -28 3 40 c2 22 32 137 68 255 35 117 78 279 94 358 40 192 51 232 61 232
14 0 11 -126 -5 -189 -8 -31 -17 -104 -20 -162 -4 -75 -14 -132 -35 -202 -30
-96 -51 -257 -51 -394 0 -102 17 -81 25 30 13 199 24 273 54 371 24 76 31 117
31 182 0 45 8 118 18 161 15 64 17 104 13 217 -4 87 -10 141 -17 143 -6 2 -24
-51 -43 -134 -41 -176 -43 -179 -52 -111 -5 31 -15 72 -23 91 -11 27 -12 52
-5 113 5 44 13 160 18 259 10 193 25 265 71 360 l29 60 -4 -60 -5 -60 15 69
c15 72 32 99 78 123 27 13 29 13 49 -12 18 -23 22 -25 37 -11 26 24 103 56
136 56 17 0 41 -7 54 -16 22 -16 23 -22 19 -96 -3 -43 -10 -84 -16 -90 -6 -6
-40 -13 -75 -15 -79 -4 -101 14 -100 80 l1 42 -10 -44 c-9 -40 -8 -45 18 -72
38 -39 22 -57 -31 -34 -25 10 -42 12 -48 6 -7 -7 -3 -10 9 -9 10 0 32 -5 48
-11 l30 -12 -52 -45 c-29 -25 -52 -51 -52 -57 0 -6 19 8 43 31 23 23 46 42 49
42 4 0 20 14 36 30 23 22 40 30 66 30 47 0 45 -11 -4 -32 -30 -13 -45 -27 -59
-58 -10 -22 -27 -47 -37 -55 -15 -12 -16 -14 -2 -9 13 4 15 1 11 -16 -5 -20
-35 -52 -78 -85 -14 -11 -15 -13 -3 -9 12 4 18 -1 21 -18 4 -22 4 -22 6 3 1
31 44 74 62 64 7 -5 10 -4 5 3 -7 12 3 62 13 62 10 -1 51 -70 51 -86 0 -8 5
-14 11 -14 7 0 18 -8 26 -17 13 -16 13 -16 4 4 -6 12 -16 23 -21 25 -6 2 -12
13 -13 25 0 13 -7 25 -13 27 -7 3 -18 21 -24 42 -12 36 -12 39 19 66 42 38 61
36 62 -4 1 -18 5 -4 9 31 8 70 20 84 65 76 17 -3 57 -7 90 -8 55 -2 60 0 63
21 4 27 9 27 43 4 39 -25 96 -97 109 -138 7 -19 14 -33 17 -31 9 10 -28 79
-67 125 -57 69 -53 90 12 67 108 -37 152 -158 94 -262 -15 -26 -20 -39 -11
-28 14 17 17 18 26 5 9 -13 10 -12 5 2 -8 26 21 88 41 88 15 0 15 1 1 13 -9 6
-19 31 -23 55 l-7 43 29 -6 c15 -4 34 -8 41 -11 7 -2 11 0 8 5 -3 5 -21 12
-39 15 -23 4 -44 19 -67 47 -18 23 -48 48 -67 56 -20 8 -33 17 -30 20 9 9 113
-26 140 -47 14 -11 29 -20 33 -20 4 0 -7 11 -25 24 l-32 24 23 16 c12 9 18 16
12 16 -5 0 -15 -5 -21 -11 -12 -12 -83 -4 -83 9 0 5 6 14 13 22 6 8 3 7 -9 -3
-11 -9 -28 -17 -38 -17 -13 0 -15 4 -6 19 15 30 12 38 -6 13 -21 -31 -60 -29
-68 3 -4 14 -16 35 -27 46 -27 27 -12 39 47 39 112 0 268 -59 280 -107 4 -16
9 -21 14 -13 17 28 104 -127 125 -224 7 -34 14 -49 14 -35 2 46 -37 153 -79
217 -22 34 -39 65 -39 68 0 8 -27 24 -111 66 -55 27 -78 33 -154 36 -79 4 -87
6 -71 18 10 8 33 14 49 14 29 0 125 -20 174 -35 13 -5 22 -3 22 3 0 15 -82 39
-164 47 -60 7 -66 9 -66 31 0 12 -5 26 -11 30 -8 4 -9 -3 -4 -24 8 -40 -31
-77 -98 -92 -42 -9 -53 -8 -68 6 -16 14 -16 19 -3 57 9 23 24 112 34 198 10
86 22 168 25 182 7 26 8 26 39 11 27 -13 29 -13 12 0 -10 8 -24 17 -30 19 -11
4 8 82 22 91 5 3 21 -1 36 -9 14 -8 24 -10 20 -4 -3 6 2 17 12 24 11 8 14 15
7 15 -6 0 -15 -4 -18 -10 -9 -15 -31 -12 -49 6 -9 8 -16 12 -16 7 0 -5 -20
-14 -44 -21 -29 -8 -47 -18 -51 -32 -3 -11 -10 -20 -14 -20 -5 0 -28 29 -51
65 -43 65 -64 89 -35 38z m185 -59 c0 -4 -5 -24 -12 -46 l-12 -40 -19 24 c-17
22 -18 22 -8 1 16 -32 16 -53 -8 -223 -21 -155 -44 -250 -62 -250 -25 0 -28
52 -10 133 11 45 22 129 25 187 8 130 19 173 53 200 25 19 53 27 53 14z m-70
-619 c0 -8 -4 -15 -10 -15 -5 0 -10 7 -10 15 0 8 5 15 10 15 6 0 10 -7 10 -15z
m80 -55 c0 -5 -7 -10 -15 -10 -8 0 -15 5 -15 10 0 6 7 10 15 10 8 0 15 -4 15
-10z m-93 -72 c-3 -8 -6 -5 -6 6 -1 11 2 17 5 13 3 -3 4 -12 1 -19z"/>
<path d="M2623 3934 l-53 -46 -32 22 -33 22 30 -26 c17 -14 33 -26 36 -26 3 0
30 22 60 50 68 62 62 65 -8 4z"/>
<path d="M10920 3626 l0 -46 43 0 42 0 -1 42 c-1 43 -1 43 -43 46 l-41 3 0
-45z"/>
<path d="M14187 3664 c-4 -4 -7 -25 -7 -46 l0 -38 46 0 45 0 -3 43 c-3 40 -4
42 -38 45 -20 2 -39 0 -43 -4z"/>
<path d="M8137 3653 c-4 -3 -7 -21 -7 -40 l0 -33 50 0 50 0 0 -155 0 -155 45
0 44 0 3 153 3 152 48 3 47 3 0 40 0 39 -138 0 c-76 0 -142 -3 -145 -7z"/>
<path d="M9087 3654 c-4 -4 -7 -92 -7 -196 l0 -188 48 0 47 0 0 101 c0 87 3
102 19 114 13 10 24 11 37 4 17 -8 19 -23 19 -114 l0 -105 46 0 46 0 -4 124
c-4 150 -12 166 -89 166 -26 0 -51 -4 -54 -10 -16 -26 -26 -6 -24 48 l3 57
-40 3 c-22 2 -43 0 -47 -4z"/>
<path d="M10080 3465 l0 -195 45 0 45 0 0 195 0 195 -45 0 -45 0 0 -195z"/>
<path d="M12290 3465 l0 -195 45 0 45 0 0 195 0 195 -45 0 -45 0 0 -195z"/>
<path d="M11958 3643 c-24 -4 -29 -10 -34 -44 -6 -33 -10 -39 -30 -39 -21 0
-24 -5 -24 -34 0 -28 4 -35 23 -38 20 -3 22 -9 25 -83 1 -44 4 -90 7 -101 6
-27 52 -46 101 -42 36 3 39 6 42 36 3 30 1 32 -27 32 -36 0 -44 19 -39 101 3
51 5 54 31 57 24 3 27 8 27 38 0 31 -2 34 -30 34 -29 0 -30 2 -30 45 0 25 -3
44 -7 44 -5 -1 -20 -4 -35 -6z"/>
<path d="M10798 3599 c-10 -5 -18 -17 -18 -24 0 -12 -16 -15 -76 -15 -70 0
-78 -2 -105 -29 -33 -33 -38 -74 -13 -109 15 -22 15 -25 -7 -48 -21 -22 -22
-28 -11 -56 10 -26 9 -35 -3 -48 -23 -25 -18 -56 11 -79 23 -18 41 -21 116
-21 101 0 148 16 167 56 16 36 14 52 -13 78 -19 19 -38 25 -102 31 -78 7 -109
19 -98 36 3 5 25 9 50 9 50 0 102 18 123 43 15 19 17 48 6 95 -7 30 -6 32 19
32 22 0 26 4 26 30 0 26 -4 30 -27 30 -16 0 -36 -5 -45 -11z m-58 -109 c11
-21 -13 -60 -39 -60 -43 0 -58 64 -18 79 27 10 44 4 57 -19z m33 -239 c19 -19
-7 -31 -68 -31 -65 0 -82 9 -71 37 5 13 17 15 68 9 34 -3 66 -10 71 -15z"/>
<path d="M13518 3599 c-10 -5 -18 -17 -18 -24 0 -12 -16 -15 -74 -15 -66 0
-78 -3 -105 -26 -35 -29 -41 -75 -16 -111 14 -21 14 -24 -5 -43 -22 -22 -26
-60 -8 -78 9 -9 8 -16 -5 -30 -33 -36 -14 -85 38 -98 14 -3 65 -4 114 -3 83 4
93 6 117 31 34 34 37 83 6 109 -14 10 -49 19 -94 24 -91 8 -108 13 -108 30 0
9 20 14 65 17 89 5 120 29 120 89 -1 24 -3 51 -5 59 -4 10 4 16 23 18 24 3 28
7 25 30 -2 20 -9 28 -28 29 -14 2 -33 -2 -42 -8z m-60 -121 c4 -31 -20 -52
-52 -44 -32 8 -40 42 -15 67 25 25 63 12 67 -23z m35 -227 c19 -19 -7 -31 -67
-31 -68 0 -96 15 -73 39 13 14 124 8 140 -8z"/>
<path d="M8474 3528 c-73 -68 -64 -198 19 -248 36 -23 100 -26 137 -7 28 14
72 75 64 88 -11 19 -67 9 -90 -16 -13 -14 -28 -25 -34 -25 -17 0 -50 39 -50
60 0 19 7 20 90 20 90 0 90 0 90 25 0 39 -25 89 -55 113 -21 16 -41 22 -81 22
-47 0 -59 -4 -90 -32z m134 -62 c3 -13 -5 -16 -42 -16 -51 0 -56 10 -25 41 18
18 23 19 42 6 12 -8 23 -22 25 -31z"/>
<path d="M8814 3541 c-34 -20 -64 -82 -64 -131 0 -67 50 -135 107 -146 77 -15
163 33 163 90 0 23 -4 26 -38 26 -29 0 -39 -5 -47 -22 -11 -25 -42 -34 -65
-18 -11 6 -15 27 -15 70 0 49 4 64 19 76 30 21 34 20 69 -28 8 -11 21 -15 45
-11 43 7 42 35 -2 79 -30 30 -40 34 -87 34 -35 0 -65 -7 -85 -19z"/>
<path d="M9420 3415 l0 -145 45 0 45 0 0 99 c0 77 4 103 16 115 21 22 31 20
50 -9 13 -19 15 -44 13 -115 l-4 -90 43 0 42 0 0 123 c0 116 -1 125 -23 145
-28 26 -92 30 -125 6 -20 -14 -22 -14 -22 0 0 12 -10 16 -40 16 l-40 0 0 -145z"/>
<path d="M9796 3539 c-37 -29 -56 -71 -56 -124 0 -123 96 -189 200 -137 44 21
70 72 70 135 0 93 -50 147 -135 147 -38 0 -60 -6 -79 -21z m120 -85 c14 -76
-17 -151 -54 -128 -25 16 -30 145 -7 168 24 23 53 4 61 -40z"/>
<path d="M10299 3545 c-57 -31 -79 -157 -39 -222 37 -61 114 -80 179 -45 45
24 71 74 71 135 0 92 -50 147 -134 147 -28 -1 -63 -7 -77 -15z m107 -69 c3
-12 4 -48 2 -80 -4 -69 -25 -93 -55 -63 -26 26 -26 143 0 162 24 17 46 9 53
-19z"/>
<path d="M10920 3416 l0 -146 43 0 42 0 -2 142 -2 143 -40 3 -41 3 0 -145z"/>
<path d="M11134 3541 c-34 -21 -64 -83 -64 -134 0 -110 125 -183 217 -127 32
19 67 72 56 84 -13 13 -74 6 -79 -9 -4 -9 -15 -20 -26 -26 -27 -15 -68 13 -68
46 0 25 1 25 90 25 65 0 90 3 90 13 0 36 -26 94 -52 119 -25 23 -39 28 -82 28
-32 0 -62 -7 -82 -19z m116 -56 c0 -2 3 -10 6 -19 5 -13 -2 -16 -40 -16 -33 0
-46 4 -46 14 0 24 40 47 62 35 10 -5 18 -11 18 -14z"/>
<path d="M11624 3541 c-54 -33 -79 -127 -50 -194 32 -75 123 -110 195 -73 39
21 76 76 58 88 -22 14 -77 9 -77 -7 0 -8 -9 -19 -21 -25 -28 -16 -69 11 -69
45 0 25 1 25 91 25 l91 0 -7 37 c-10 55 -32 91 -65 108 -40 21 -108 19 -146
-4z m116 -56 c0 -2 3 -10 6 -19 5 -13 -2 -16 -40 -16 -33 0 -46 4 -46 14 0 24
40 47 62 35 10 -5 18 -11 18 -14z"/>
<path d="M12470 3415 l0 -145 45 0 45 0 0 99 c0 78 3 103 16 116 40 40 65 -13
62 -128 l-3 -87 43 0 42 0 0 95 c0 82 3 98 20 115 16 16 25 18 40 10 18 -10
20 -21 20 -115 l0 -105 45 0 45 0 0 119 c0 105 -2 121 -21 145 -17 22 -29 26
-69 26 -30 0 -52 -5 -60 -15 -7 -8 -18 -15 -25 -15 -7 0 -18 7 -25 15 -14 17
-82 20 -110 5 -13 -7 -21 -7 -25 0 -3 5 -24 10 -46 10 l-39 0 0 -145z"/>
<path d="M13011 3546 c-21 -12 -50 -50 -51 -67 0 -4 16 -9 36 -11 29 -3 42 1
60 19 27 27 37 28 58 7 28 -28 19 -41 -36 -48 -28 -4 -63 -13 -78 -21 -34 -18
-54 -64 -45 -105 12 -56 98 -79 148 -40 21 17 26 18 31 5 3 -10 19 -15 48 -15
l43 0 -5 117 c-7 132 -10 145 -46 162 -34 15 -133 13 -163 -3z m119 -164 c0
-30 -30 -63 -53 -60 -31 4 -34 42 -5 62 30 21 58 20 58 -2z"/>
<path d="M13678 3537 c-73 -59 -75 -181 -5 -246 35 -32 111 -40 156 -17 39 21
76 76 58 88 -22 14 -77 9 -77 -7 0 -8 -9 -19 -21 -25 -28 -16 -69 11 -69 45 0
25 1 25 91 25 l91 0 -7 37 c-16 87 -58 123 -142 123 -35 0 -55 -6 -75 -23z
m122 -52 c0 -2 3 -10 6 -19 5 -13 -2 -16 -40 -16 -33 0 -46 4 -46 14 0 24 40
47 62 35 10 -5 18 -11 18 -14z"/>
<path d="M13967 3554 c-4 -4 -7 -70 -7 -146 l0 -138 45 0 45 0 0 69 c0 85 12
118 45 131 21 8 25 16 25 50 0 36 -2 40 -25 40 -14 0 -28 -7 -31 -15 -7 -18
-25 -20 -21 -2 2 13 -64 23 -76 11z"/>
<path d="M14180 3415 l0 -145 45 0 45 0 0 145 0 145 -45 0 -45 0 0 -145z"/>
<path d="M14396 3539 c-39 -30 -56 -71 -56 -131 0 -99 63 -156 159 -145 36 4
52 13 79 42 39 43 37 59 -7 63 -25 3 -37 -2 -52 -22 -11 -14 -27 -26 -35 -26
-21 0 -54 37 -54 60 0 19 7 20 90 20 l90 0 0 30 c0 76 -57 130 -135 130 -38 0
-60 -6 -79 -21z m116 -53 c18 -26 7 -36 -37 -36 -49 0 -55 10 -25 40 20 20 47
18 62 -4z"/>
<path d="M2940 3426 c0 -2 8 -10 18 -17 15 -13 16 -12 3 4 -13 16 -21 21 -21
13z"/>
<path d="M2862 3330 c0 -14 2 -19 5 -12 2 6 2 18 0 25 -3 6 -5 1 -5 -13z"/>
<path d="M2872 3260 c0 -19 2 -27 5 -17 2 9 2 25 0 35 -3 9 -5 1 -5 -18z"/>
<path d="M4512 3258 c-142 -31 -175 -250 -49 -329 43 -27 159 -24 199 6 66 48
87 163 46 245 -35 67 -109 96 -196 78z m83 -64 c43 -17 61 -124 31 -183 -29
-54 -97 -56 -133 -2 -34 50 -28 127 14 173 16 18 57 23 88 12z"/>
<path d="M5917 3259 c-110 -18 -170 -155 -116 -265 29 -61 71 -84 151 -84 112
0 173 62 173 175 0 123 -86 195 -208 174z m94 -85 c20 -22 24 -36 24 -89 0
-53 -4 -67 -24 -89 -24 -26 -61 -33 -96 -20 -39 15 -60 127 -33 177 28 53 89
63 129 21z"/>
<path d="M1922 3235 c-17 -37 -14 -45 4 -12 9 16 14 31 11 33 -2 2 -9 -7 -15
-21z"/>
<path d="M3370 3085 l0 -175 116 0 115 0 -3 33 -3 32 -72 3 -73 3 0 139 0 140
-40 0 -40 0 0 -175z"/>
<path d="M3755 3248 c-3 -7 -25 -78 -50 -158 -25 -80 -48 -153 -51 -163 -5
-16 0 -18 37 -15 40 3 43 5 57 46 l14 43 51 -3 c50 -3 51 -4 65 -45 13 -42 15
-43 57 -43 l43 0 -32 103 c-18 56 -43 135 -56 175 l-24 72 -53 0 c-34 0 -55
-5 -58 -12z m72 -110 c7 -24 15 -51 18 -60 6 -15 1 -18 -33 -18 l-40 0 16 60
c9 33 19 60 22 60 3 0 11 -19 17 -42z"/>
<path d="M4050 3085 l0 -175 90 0 c98 0 137 12 164 52 25 36 20 76 -14 110
-30 29 -30 31 -12 44 25 17 35 56 22 88 -15 41 -58 56 -160 56 l-90 0 0 -175z
m171 94 c13 -26 -21 -59 -61 -59 -28 0 -30 2 -30 39 0 30 4 40 18 43 30 6 62
-4 73 -23z m-3 -131 c17 -17 15 -53 -3 -68 -8 -6 -29 -13 -47 -13 -32 -2 -33
-1 -36 46 l-3 47 38 0 c22 0 44 -5 51 -12z"/>
<path d="M4810 3085 l0 -175 40 0 39 0 3 68 c3 59 5 67 24 70 27 4 49 -23 67
-83 14 -49 15 -50 55 -53 23 -2 42 0 42 3 0 22 -35 123 -47 137 -14 16 -13 20
11 48 27 33 34 77 16 111 -19 35 -63 49 -160 49 l-90 0 0 -175z m168 103 c17
-17 15 -53 -3 -68 -8 -6 -29 -13 -47 -13 -32 -2 -33 -1 -36 46 l-3 47 38 0
c22 0 44 -5 51 -12z"/>
<path d="M5192 3093 c-29 -92 -52 -171 -52 -175 0 -5 18 -8 39 -8 37 0 40 2
53 43 14 41 15 42 65 45 l51 3 13 -46 c13 -44 14 -45 56 -45 24 0 43 3 43 8 0
4 -24 81 -53 172 l-53 165 -55 3 -55 3 -52 -168z m133 0 c6 -32 6 -33 -29 -33
-20 0 -36 3 -36 6 0 3 7 31 17 62 l16 57 12 -30 c7 -16 16 -45 20 -62z"/>
<path d="M5470 3225 c0 -35 0 -35 45 -35 l45 0 0 -140 0 -140 45 0 46 0 -2
138 -1 137 46 3 c45 3 46 4 46 38 l0 34 -135 0 -135 0 0 -35z"/>
<path d="M6210 3085 l0 -175 40 0 40 0 0 175 0 175 -40 0 -40 0 0 -175z"/>
<path d="M6390 3257 c-3 -3 -4 -82 -2 -176 l3 -171 39 0 40 0 0 70 c0 63 2 70
20 70 22 0 60 -33 60 -52 0 -7 5 -30 11 -50 10 -37 12 -38 54 -38 l43 0 -18
61 c-10 33 -25 70 -33 83 -14 20 -13 24 9 45 34 33 34 99 -2 132 -23 21 -36
24 -122 27 -53 2 -99 1 -102 -1z m158 -69 c16 -16 15 -53 -1 -67 -8 -6 -28
-14 -45 -17 l-32 -6 0 51 0 51 33 0 c18 0 38 -5 45 -12z"/>
<path d="M6730 3085 l0 -175 115 0 115 0 0 30 0 29 -72 3 -73 3 0 40 0 40 66
3 65 3 -4 29 c-4 30 -5 30 -68 30 l-64 0 0 35 0 35 70 0 70 0 0 35 0 35 -110
0 -110 0 0 -175z"/>
<path d="M2281 3119 c-1 -8 10 -26 24 -39 22 -21 25 -32 25 -96 l0 -72 -37
-24 c-20 -13 -51 -29 -68 -36 -19 -8 -22 -11 -7 -8 25 5 25 5 13 -27 -7 -19
-20 -27 -50 -32 -23 -4 -41 -11 -41 -15 0 -5 14 -5 31 0 17 5 34 9 38 8 3 -1
13 1 21 5 31 11 83 27 91 27 5 0 9 -23 9 -51 l0 -52 -52 7 c-80 10 -165 16
-146 10 16 -5 16 -7 1 -32 -16 -27 -16 -27 8 1 22 25 29 28 62 22 21 -4 44
-17 52 -28 11 -16 15 -17 15 -6 0 12 8 14 30 11 28 -4 30 -7 30 -48 0 -42 -2
-44 -28 -44 -15 0 -32 3 -38 8 -5 4 -1 -1 10 -11 11 -10 26 -15 37 -12 21 7
27 -10 7 -18 -10 -4 -10 -6 0 -6 6 -1 12 -12 12 -25 0 -23 -2 -24 -52 -19 -93
8 -108 6 -123 -13 -8 -10 -15 -29 -15 -41 0 -12 -8 -24 -17 -26 -15 -4 -14 -5
3 -6 11 0 28 -9 37 -18 14 -16 14 -20 -3 -41 -12 -14 -25 -20 -37 -16 -16 5
-17 5 -1 -6 14 -8 15 -16 7 -37 -7 -19 -5 -38 10 -79 18 -48 19 -55 5 -69 -10
-9 -11 -15 -4 -15 8 0 11 -18 8 -54 -2 -44 0 -56 15 -66 14 -8 17 -18 13 -38
-5 -22 -4 -24 4 -9 6 9 20 17 31 17 11 0 42 21 69 46 l50 47 0 -58 c0 -50 -5
-66 -36 -112 -32 -48 -119 -238 -139 -302 -6 -21 -11 -15 -38 49 -34 83 -90
147 -135 156 -30 6 -30 7 -27 63 l4 56 -8 -53 c-5 -29 -17 -65 -27 -80 -13
-18 -18 -45 -18 -83 1 -73 33 -234 51 -256 13 -17 13 -16 4 3 -15 32 -41 189
-41 250 0 148 125 102 191 -70 32 -84 32 -100 4 -278 -3 -21 2 -30 28 -47 37
-24 41 -22 27 13 -9 25 3 167 17 189 4 7 74 -79 126 -157 15 -23 33 -71 40
-106 11 -49 18 -65 35 -71 21 -8 22 -6 22 51 0 32 -3 65 -6 74 -9 25 -24 19
-24 -9 0 -14 -4 -25 -10 -25 -5 0 -10 7 -10 15 0 20 -46 111 -61 120 -25 16
-99 129 -99 152 0 13 16 61 36 106 l35 82 40 0 c32 0 40 -4 48 -25 5 -14 10
-18 10 -10 1 9 -6 26 -15 38 -20 28 -13 60 22 101 21 26 29 29 45 20 30 -15
81 -101 69 -113 -5 -5 -10 -15 -10 -21 0 -5 4 -3 10 5 5 8 11 12 13 10 10 -11
60 -201 78 -293 18 -96 18 -100 -1 -205 -11 -59 -19 -116 -19 -127 1 -18 15
39 34 140 7 37 9 38 15 15 5 -14 8 -62 9 -107 1 -74 3 -82 22 -88 33 -11 39
10 39 115 -1 52 -1 99 -1 104 1 5 8 2 17 -5 9 -8 39 -13 69 -13 l53 1 12 -43
c7 -23 11 -78 9 -122 -4 -88 5 -101 16 -22 5 33 1 76 -10 128 l-17 78 26 38
c36 53 34 100 -8 189 -18 40 -38 83 -45 97 l-11 25 6 -25 c3 -14 22 -60 41
-102 29 -62 35 -85 30 -115 -13 -78 -73 -123 -137 -104 -21 6 -43 18 -49 25
-7 8 -21 66 -31 128 -10 62 -25 144 -34 181 -9 38 -14 73 -10 78 8 13 -33 135
-62 185 -13 23 -37 53 -54 67 -30 25 -30 27 -30 123 0 120 9 116 65 -26 38
-98 71 -140 109 -140 30 0 41 10 66 59 19 38 21 54 15 105 -10 91 -5 220 8
228 9 6 9 8 1 8 -14 0 -38 55 -30 69 4 5 -7 3 -24 -5 -37 -19 -65 -55 -81
-102 -31 -99 -63 -127 -109 -95 -18 13 -20 25 -20 114 l0 99 53 -6 c70 -8 108
11 144 74 15 26 31 49 35 50 5 2 6 7 3 12 -3 4 0 31 7 59 10 45 9 54 -4 68
-15 15 -14 17 20 35 20 10 43 16 51 13 11 -5 12 -3 1 10 -11 13 -15 14 -29 2
-50 -43 -187 -51 -242 -14 l-34 23 -3 121 -3 122 88 4 88 3 -103 2 c-59 1
-116 8 -135 15 -41 18 -97 64 -107 91 -6 15 -9 16 -9 5z m49 -254 c0 -21 -9
-30 -42 -45 -24 -10 -45 -17 -47 -14 -15 14 46 73 87 83 1 1 2 -10 2 -24z
m259 -171 c51 -1 98 -7 103 -12 21 -21 -35 -182 -76 -221 -29 -28 -87 -37
-126 -21 l-30 12 0 130 c0 120 1 130 18 122 9 -4 59 -9 111 -10z m-358 -184
c15 -9 19 -20 17 -60 -2 -46 -4 -50 -27 -50 -29 0 -71 36 -71 62 0 20 33 58
51 58 6 0 19 -5 30 -10z m99 -54 c0 -45 -10 -56 -51 -56 -16 0 -19 7 -19 50
l0 50 35 0 c35 0 35 0 35 -44z m0 -117 l0 -60 -47 -20 c-27 -11 -64 -28 -84
-38 l-36 -18 -12 32 c-15 43 -14 80 4 115 16 32 32 38 110 43 28 2 53 4 58 5
4 1 7 -25 7 -59z m360 42 c15 -28 12 -136 -4 -175 -27 -66 -90 -84 -153 -45
l-34 21 33 17 c26 13 39 31 65 94 17 43 37 85 44 93 16 20 36 18 49 -5z m-360
-198 l0 -78 -49 -47 c-27 -27 -56 -48 -64 -48 -54 0 -79 134 -34 184 18 21
106 62 140 65 4 1 7 -34 7 -76z m376 -117 c-6 -25 -6 -25 -50 17 l-44 42 27
12 c15 6 34 19 42 29 13 16 15 13 23 -29 4 -26 5 -58 2 -71z m-88 35 c44 -31
65 -59 65 -86 0 -51 -53 -74 -86 -37 -20 22 -63 109 -72 145 l-7 28 36 -15
c21 -9 49 -24 64 -35z"/>
<path d="M2670 3082 c0 -15 -7 -39 -16 -52 l-16 -25 21 24 c18 20 30 81 16 81
-3 0 -5 -12 -5 -28z"/>
<path d="M3003 3040 c0 -25 2 -35 4 -22 2 12 2 32 0 45 -2 12 -4 2 -4 -23z"/>
<path d="M8823 2967 c-82 -50 -68 -82 19 -46 68 29 72 33 59 58 -15 27 -16 27
-78 -12z"/>
<path d="M3012 2940 c0 -19 2 -27 5 -17 2 9 2 25 0 35 -3 9 -5 1 -5 -18z"/>
<path d="M9347 2964 c-4 -4 -7 -25 -7 -46 l0 -38 46 0 45 0 -3 43 c-3 40 -4
42 -38 45 -20 2 -39 0 -43 -4z"/>
<path d="M8177 2953 c-4 -3 -7 -91 -7 -195 l0 -188 40 0 40 0 0 143 c0 78 4
135 9 127 4 -8 25 -73 47 -143 l38 -128 35 3 35 3 46 140 45 140 3 -142 3
-143 44 0 45 0 0 195 0 196 -72 -3 -72 -3 -31 -95 c-16 -52 -35 -95 -40 -96
-6 0 -22 39 -37 88 -15 49 -30 93 -33 99 -7 10 -128 13 -138 2z"/>
<path d="M9177 2953 c-4 -3 -7 -28 -7 -53 l0 -48 -46 6 c-56 6 -88 -10 -109
-53 -19 -42 -20 -147 0 -185 30 -58 87 -76 135 -43 17 12 25 13 28 5 2 -7 21
-12 43 -12 l39 0 0 195 0 195 -38 0 c-21 0 -42 -3 -45 -7z m-7 -238 c0 -66 -2
-76 -22 -86 -19 -10 -24 -8 -41 12 -15 19 -18 35 -15 83 5 66 26 93 59 75 16
-8 19 -22 19 -84z"/>
<path d="M10160 2765 l0 -195 45 0 45 0 0 195 0 195 -45 0 -45 0 0 -195z"/>
<path d="M5600 2818 c-172 -588 -253 -803 -332 -875 -54 -50 -80 -53 -522 -53
-581 0 -1206 -12 -1200 -22 3 -5 352 -6 822 -3 693 5 823 8 859 21 48 18 102
73 136 141 48 95 135 348 222 643 45 156 44 154 50 148 3 -3 10 -209 15 -458
10 -460 22 -670 43 -757 10 -38 17 -49 35 -51 35 -5 60 24 82 96 20 63 36 165
86 547 14 110 34 232 45 273 23 90 49 146 61 134 5 -5 9 -67 9 -137 -1 -267
28 -415 95 -494 68 -79 78 -81 376 -80 439 2 482 13 84 22 -374 9 -377 9 -427
64 -71 75 -89 155 -96 413 -5 209 -13 250 -47 250 -36 0 -82 -131 -110 -310
-8 -52 -27 -189 -41 -305 -14 -115 -33 -244 -41 -285 -19 -90 -49 -163 -66
-158 -33 11 -46 180 -59 738 -11 510 -15 563 -41 568 -13 3 -22 -13 -38 -70z"/>
<path d="M3920 2770 l0 -90 125 0 125 0 2 -377 3 -378 112 -3 113 -3 2 378 3
378 128 3 127 3 0 89 0 90 -370 0 -370 0 0 -90z"/>
<path d="M4832 2393 l3 -468 113 -3 112 -3 0 471 0 470 -115 0 -115 0 2 -467z"/>
<path d="M8734 2841 c-57 -35 -83 -136 -50 -199 38 -72 126 -103 194 -68 38
19 67 60 58 81 -7 20 -65 20 -72 0 -4 -9 -15 -20 -26 -26 -27 -15 -68 13 -68
46 0 24 2 24 88 27 l87 3 -3 35 c-8 78 -55 120 -134 120 -24 0 -56 -8 -74 -19z
m116 -56 c0 -2 3 -10 6 -19 5 -13 -2 -16 -40 -16 -33 0 -46 4 -46 14 0 24 40
47 62 35 10 -5 18 -11 18 -14z"/>
<path d="M9347 2853 c-4 -3 -7 -69 -7 -145 l0 -138 45 0 45 0 0 145 0 145 -38
0 c-21 0 -42 -3 -45 -7z"/>
<path d="M9562 2840 c-87 -53 -81 -218 8 -262 67 -34 157 -13 185 43 25 47 20
59 -23 59 -32 0 -41 -5 -50 -25 -13 -27 -49 -34 -70 -13 -13 13 -16 95 -6 122
4 9 15 21 26 27 15 8 24 5 46 -19 22 -24 34 -28 60 -24 43 6 42 34 -2 78 -30
30 -40 34 -87 34 -37 0 -65 -7 -87 -20z"/>
<path d="M9868 2843 c-23 -14 -54 -61 -46 -68 2 -1 20 -5 41 -8 28 -4 39 -2
44 9 15 40 83 36 83 -5 0 -15 -10 -21 -52 -26 -103 -14 -149 -68 -117 -138 25
-54 129 -63 161 -13 4 6 9 4 14 -7 4 -12 18 -17 48 -17 l41 0 -5 121 c-5 117
-6 122 -33 145 -23 20 -39 24 -90 24 -40 0 -72 -6 -89 -17z m122 -166 c0 -29
-32 -60 -57 -55 -27 5 -28 43 -1 62 33 24 58 21 58 -7z"/>
<path d="M10364 2827 c-57 -52 -65 -165 -16 -221 40 -44 120 -60 172 -33 28
14 72 75 64 88 -11 19 -67 9 -90 -16 -13 -14 -28 -25 -34 -25 -17 0 -50 39
-50 60 0 19 7 20 90 20 90 0 90 0 90 25 0 39 -25 89 -55 113 -21 16 -41 22
-81 22 -47 0 -59 -4 -90 -33z m134 -61 c3 -13 -5 -16 -42 -16 -51 0 -56 10
-25 41 18 18 23 19 42 6 12 -8 23 -22 25 -31z"/>
<path d="M3031 2764 c0 -11 3 -14 6 -6 3 7 2 16 -1 19 -3 4 -6 -2 -5 -13z"/>
<path d="M3042 2710 c0 -14 2 -19 5 -12 2 6 2 18 0 25 -3 6 -5 1 -5 -13z"/>
<path d="M3052 2655 c0 -16 2 -22 5 -12 2 9 2 23 0 30 -3 6 -5 -1 -5 -18z"/>
<path d="M2250 2561 c0 -25 6 -27 13 -6 4 8 2 17 -3 20 -6 4 -10 -3 -10 -14z"/>
<path d="M3050 2540 c0 -16 4 -30 9 -30 5 0 12 -15 15 -33 3 -19 13 -42 21
-53 10 -13 9 -2 -5 38 -11 32 -20 69 -20 83 0 14 -4 25 -10 25 -5 0 -10 -13
-10 -30z"/>
<path d="M3042 2480 c0 -14 2 -19 5 -12 2 6 2 18 0 25 -3 6 -5 1 -5 -13z"/>
<path d="M3031 2434 c0 -11 3 -14 6 -6 3 7 2 16 -1 19 -3 4 -6 -2 -5 -13z"/>
<path d="M2979 2387 c4 -43 5 -47 10 -22 l6 30 18 -25 c9 -13 17 -28 17 -32 0
-4 27 -66 60 -138 63 -138 94 -238 109 -355 5 -40 9 -55 10 -35 3 103 -36 243
-115 408 -29 63 -56 129 -60 149 -5 25 -9 31 -15 21 -5 -7 -9 -8 -9 -3 0 6 -8
20 -18 32 -17 22 -17 22 -13 -30z"/>
<path d="M9540 2319 c-44 -27 -43 -26 -36 -38 9 -14 96 28 96 46 0 19 -20 16
-60 -8z"/>
<path d="M10965 2319 c-16 -10 -34 -21 -40 -23 -7 -2 -7 -7 0 -13 13 -14 95
23 95 42 0 20 -18 18 -55 -6z"/>
<path d="M2991 2305 c-1 -17 26 -109 60 -205 33 -96 67 -195 75 -220 13 -43
14 -44 8 -7 -3 20 -30 106 -60 190 -31 83 -62 179 -69 212 -9 41 -14 50 -14
30z"/>
<path d="M8170 2164 l0 -155 23 3 c20 3 22 9 25 76 l3 72 59 0 c46 0 60 3 60
15 0 10 -16 15 -62 17 l-61 3 0 44 0 44 74 1 c62 1 74 4 77 19 3 15 -7 17 -97
17 l-101 0 0 -156z"/>
<path d="M9162 2168 c3 -150 3 -153 26 -156 l22 -3 0 155 0 156 -25 0 -26 0 3
-152z"/>
<path d="M9970 2275 c0 -46 -13 -58 -37 -34 -7 7 -25 9 -48 5 -50 -10 -75 -52
-75 -129 0 -51 4 -62 29 -88 33 -33 74 -38 109 -13 12 8 22 10 22 5 0 -6 7
-11 15 -11 13 0 15 24 15 155 0 131 -2 155 -15 155 -11 0 -15 -12 -15 -45z
m-23 -81 c22 -22 25 -32 20 -77 -7 -76 -55 -109 -97 -67 -15 15 -20 33 -20 74
0 47 4 57 26 75 34 27 40 26 71 -5z"/>
<path d="M10480 2165 c0 -131 2 -155 15 -155 13 0 15 20 15 122 0 67 3 119 6
115 3 -3 26 -57 49 -119 57 -149 65 -149 120 -1 23 62 44 116 48 119 4 4 7
-47 7 -114 0 -115 1 -122 20 -122 19 0 20 7 20 156 l0 155 -32 -3 c-31 -3 -33
-6 -72 -115 -23 -62 -44 -113 -47 -113 -3 0 -25 52 -49 115 -40 110 -43 115
-71 115 l-29 0 0 -155z"/>
<path d="M11260 2269 c0 -50 0 -50 -22 -35 -33 23 -64 19 -99 -12 -27 -24 -33
-37 -37 -84 -5 -60 14 -110 47 -128 30 -15 72 -12 94 8 15 12 21 14 24 5 3 -7
11 -13 19 -13 11 0 14 28 14 155 0 148 -1 155 -20 155 -17 0 -20 -7 -20 -51z
m-26 -70 c22 -17 26 -28 26 -70 0 -40 -5 -55 -25 -74 -31 -32 -48 -31 -74 1
-31 39 -29 107 4 139 29 30 35 31 69 4z"/>
<path d="M11866 2305 c-6 -17 17 -31 34 -20 5 3 10 13 10 21 0 19 -36 18 -44
-1z"/>
<path d="M12780 2271 l0 -50 -27 15 c-34 17 -45 17 -77 3 -70 -32 -74 -192 -7
-229 28 -14 63 -12 89 6 12 8 22 10 22 5 0 -6 9 -11 20 -11 19 0 20 7 20 155
0 148 -1 155 -20 155 -17 0 -20 -7 -20 -49z m-25 -76 c19 -18 25 -35 25 -70 0
-35 -6 -52 -25 -70 -13 -14 -31 -25 -40 -25 -56 0 -78 118 -30 165 13 14 29
25 35 25 6 0 22 -11 35 -25z"/>
<path d="M13290 2165 c0 -131 2 -155 15 -155 13 0 15 20 15 122 0 70 4 118 9
113 5 -6 18 -36 30 -67 79 -216 79 -216 141 -45 l45 122 3 -122 c2 -115 4
-123 22 -123 19 0 20 7 20 156 l0 155 -31 -3 c-30 -3 -33 -7 -72 -115 -23 -62
-43 -113 -47 -113 -3 0 -25 52 -49 115 -41 110 -45 115 -72 115 l-29 0 0 -155z"/>
<path d="M14840 2300 c0 -13 7 -20 20 -20 13 0 20 7 20 20 0 13 -7 20 -20 20
-13 0 -20 -7 -20 -20z"/>
<path d="M9290 2270 c0 -23 -4 -30 -20 -30 -11 0 -20 -7 -20 -15 0 -8 9 -15
20 -15 18 0 20 -7 20 -83 0 -100 14 -127 66 -127 43 0 46 25 4 34 l-30 6 0 85
c0 84 0 85 25 85 16 0 25 6 25 15 0 9 -9 15 -25 15 -21 0 -25 5 -25 30 0 23
-4 30 -20 30 -16 0 -20 -7 -20 -30z"/>
<path d="M14690 2270 c0 -23 -4 -30 -20 -30 -11 0 -20 -7 -20 -15 0 -8 9 -15
20 -15 18 0 20 -7 20 -83 0 -100 14 -127 66 -127 43 0 46 25 4 34 l-30 6 0 85
c0 84 0 85 25 85 16 0 25 6 25 15 0 9 -9 15 -25 15 -21 0 -25 5 -25 30 0 23
-4 30 -20 30 -16 0 -20 -7 -20 -30z"/>
<path d="M8441 2238 c-29 -15 -48 -44 -38 -55 5 -4 16 -2 25 5 9 7 28 17 40
22 31 13 77 -8 77 -35 0 -17 -9 -21 -59 -25 -65 -6 -96 -31 -96 -79 0 -59 85
-93 138 -55 12 8 22 10 22 5 0 -6 9 -11 21 -11 20 0 21 4 17 100 -2 76 -7 103
-19 116 -22 21 -97 28 -128 12z m109 -138 c0 -25 -42 -70 -65 -70 -28 0 -55
20 -55 40 0 27 38 50 82 50 32 0 38 -3 38 -20z"/>
<path d="M8702 2234 c-46 -32 -65 -108 -43 -167 28 -72 109 -91 155 -36 14 17
26 37 26 45 0 24 -25 16 -48 -16 -25 -34 -51 -38 -75 -12 -38 42 -33 131 8
158 23 15 27 15 50 0 14 -9 25 -23 25 -31 0 -8 9 -15 20 -15 29 0 25 27 -9 61
-33 33 -74 38 -109 13z"/>
<path d="M9479 2235 c-30 -16 -59 -70 -59 -109 0 -39 24 -91 51 -110 39 -27
96 -21 132 15 27 27 29 32 14 40 -11 7 -23 3 -41 -16 -14 -14 -34 -25 -44 -25
-28 0 -60 30 -68 63 l-6 27 86 0 c85 0 86 0 86 25 0 80 -80 128 -151 90z m99
-43 c25 -33 15 -42 -48 -42 -59 0 -71 8 -52 36 23 34 75 38 100 6z"/>
<path d="M10124 2231 c-40 -24 -58 -69 -51 -128 10 -89 98 -132 168 -82 29 20
37 43 20 54 -5 3 -21 -6 -35 -20 -14 -14 -34 -25 -46 -25 -27 0 -70 43 -70 70
0 19 6 20 86 20 l87 0 -6 38 c-8 45 -55 92 -95 92 -15 0 -41 -9 -58 -19z m79
-22 c25 -14 37 -28 37 -46 0 -9 -20 -13 -65 -13 -63 0 -64 1 -56 23 4 12 19
28 32 34 29 15 26 15 52 2z"/>
<path d="M10911 2237 c-53 -27 -78 -96 -60 -162 21 -77 111 -100 171 -45 27
24 30 31 19 39 -11 7 -23 3 -44 -15 -31 -26 -48 -29 -77 -14 -19 10 -43 64
-33 74 4 3 44 6 89 6 l84 0 -6 33 c-15 80 -78 118 -143 84z m77 -33 c12 -8 22
-24 22 -35 0 -17 -7 -19 -60 -19 -68 0 -78 14 -34 49 32 25 43 26 72 5z"/>
<path d="M11406 2220 c-84 -74 -41 -220 65 -220 47 0 112 50 92 71 -9 9 -19 6
-43 -15 -17 -14 -40 -26 -50 -26 -26 0 -58 31 -66 63 l-6 27 91 0 91 0 -7 33
c-9 47 -20 65 -53 82 -44 23 -76 18 -114 -15z m102 -16 c12 -8 22 -24 22 -35
0 -17 -7 -19 -60 -19 -44 0 -60 4 -60 13 0 20 40 52 70 56 3 1 16 -6 28 -15z"/>
<path d="M11661 2224 c-35 -32 -48 -80 -37 -140 16 -83 99 -112 157 -55 34 34
38 61 9 61 -11 0 -20 -6 -20 -14 0 -16 -37 -46 -57 -46 -27 0 -53 43 -53 88 0
76 40 117 86 87 13 -8 24 -22 24 -30 0 -8 9 -15 20 -15 50 0 -4 77 -61 86 -30
5 -41 1 -68 -22z"/>
<path d="M12050 2233 c-17 -12 -25 -13 -28 -5 -2 7 -10 12 -18 12 -11 0 -14
-22 -14 -115 0 -108 1 -115 20 -115 17 0 19 8 22 86 3 81 5 88 30 107 27 20
28 20 48 2 17 -16 20 -30 20 -107 0 -81 2 -88 20 -88 19 0 20 7 20 95 0 88 -2
98 -25 120 -28 29 -61 32 -95 8z"/>
<path d="M12281 2224 c-87 -73 -47 -224 60 -224 36 0 99 38 99 60 0 20 -32 17
-54 -5 -14 -14 -34 -25 -44 -25 -27 0 -59 30 -66 63 l-6 27 90 0 90 0 -7 33
c-9 47 -20 65 -53 82 -42 22 -74 19 -109 -11z m97 -20 c12 -8 22 -24 22 -35 0
-17 -7 -19 -60 -19 -68 0 -78 14 -34 49 32 25 43 26 72 5z"/>
<path d="M12933 2230 c-21 -13 -36 -32 -44 -59 -38 -127 86 -227 174 -140 27
27 29 32 14 40 -11 7 -23 3 -41 -16 -14 -14 -34 -25 -44 -25 -28 0 -60 30 -68
63 l-6 27 86 0 c85 0 86 0 86 25 0 38 -21 75 -51 91 -38 19 -68 18 -106 -6z
m105 -38 c25 -33 15 -42 -48 -42 -59 0 -71 8 -52 36 23 34 75 38 100 6z"/>
<path d="M13724 2241 c-40 -17 -64 -60 -64 -113 0 -86 35 -128 105 -128 72 0
121 87 96 169 -6 21 -19 45 -30 55 -22 20 -78 29 -107 17z m60 -32 c71 -33 51
-179 -25 -179 -37 0 -59 36 -59 94 0 47 4 57 26 75 31 25 27 24 58 10z"/>
<path d="M13992 2234 c-12 -8 -22 -10 -22 -5 0 6 -9 11 -20 11 -19 0 -20 -7
-20 -115 0 -108 1 -115 20 -115 18 0 20 7 20 80 0 73 3 83 25 105 28 29 34 30
61 11 16 -12 19 -28 21 -103 2 -70 5 -89 18 -91 13 -3 15 12 15 97 0 96 -1
100 -26 120 -32 25 -61 27 -92 5z"/>
<path d="M14224 2236 c-26 -12 -44 -33 -44 -52 0 -11 34 -2 59 17 39 28 84 16
89 -24 3 -26 2 -27 -48 -27 -44 0 -56 -5 -81 -29 -35 -36 -37 -64 -4 -96 29
-30 79 -33 115 -8 17 12 25 13 28 5 2 -7 11 -12 20 -12 15 0 17 11 14 87 -1
49 -5 97 -7 109 -9 40 -82 56 -141 30z m108 -141 c-4 -25 -47 -65 -71 -65 -10
0 -26 9 -35 19 -14 15 -15 24 -7 39 14 26 27 31 76 29 34 -2 40 -5 37 -22z"/>
<path d="M14468 2235 c-54 -30 -41 -108 20 -120 72 -15 87 -22 91 -40 4 -22
-24 -45 -55 -45 -12 0 -33 9 -48 21 -14 11 -34 19 -44 17 -14 -3 -12 -9 15
-36 26 -26 39 -32 76 -32 60 0 97 29 97 75 0 40 -22 59 -89 74 -60 13 -72 27
-42 52 30 24 42 24 75 -2 21 -16 30 -19 39 -10 8 8 6 16 -9 32 -27 27 -91 34
-126 14z"/>
<path d="M15020 2230 c-17 -17 -21 -18 -26 -5 -4 8 -12 15 -20 15 -11 0 -14
-23 -14 -115 0 -108 1 -115 20 -115 18 0 20 7 20 73 0 80 14 111 57 128 13 5
23 15 20 22 -6 20 -35 19 -57 -3z"/>
<path d="M8900 2146 c0 -79 3 -97 21 -120 24 -31 72 -35 102 -8 15 12 21 14
24 5 3 -7 11 -13 19 -13 11 0 14 22 14 115 0 108 -1 115 -20 115 -18 0 -20 -7
-20 -83 0 -74 -3 -86 -23 -105 -28 -26 -40 -27 -61 -6 -12 12 -16 37 -16 105
0 82 -1 89 -20 89 -19 0 -20 -7 -20 -94z"/>
<path d="M11870 2125 c0 -108 1 -115 20 -115 19 0 20 7 20 115 0 108 -1 115
-20 115 -19 0 -20 -7 -20 -115z"/>
<path d="M14840 2125 c0 -108 1 -115 20 -115 19 0 20 7 20 115 0 108 -1 115
-20 115 -19 0 -20 -7 -20 -115z"/>
<path d="M1613 2155 c0 -22 2 -30 4 -17 2 12 2 30 0 40 -3 9 -5 -1 -4 -23z"/>
<path d="M2066 2143 c-6 -14 -5 -15 5 -6 7 7 10 15 7 18 -3 3 -9 -2 -12 -12z"/>
<path d="M1673 1935 c0 -27 2 -38 4 -22 2 15 2 37 0 50 -2 12 -4 0 -4 -28z"/>
<path d="M1663 1815 c0 -27 2 -38 4 -22 2 15 2 37 0 50 -2 12 -4 0 -4 -28z"/>
<path d="M3142 1800 c0 -19 2 -27 5 -17 2 9 2 25 0 35 -3 9 -5 1 -5 -18z"/>
<path d="M6730 1790 c0 -13 11 -13 30 0 12 8 11 10 -7 10 -13 0 -23 -4 -23
-10z"/>
<path d="M3340 1761 c0 -5 9 -11 20 -14 17 -4 20 -14 20 -56 0 -39 4 -51 15
-51 12 0 15 13 15 55 0 48 2 55 20 55 11 0 20 5 20 10 0 6 -25 10 -55 10 -30
0 -55 -4 -55 -9z"/>
<path d="M3477 1703 c1 -38 4 -67 7 -65 3 1 22 2 41 2 19 0 35 5 35 10 0 6
-11 10 -25 10 -16 0 -25 6 -25 15 0 9 9 15 25 15 35 0 33 28 -2 32 -34 4 -33
22 2 26 41 5 28 22 -17 22 l-43 0 2 -67z"/>
<path d="M3610 1750 c-20 -20 -26 -65 -12 -87 11 -17 62 -34 83 -28 29 9 23
25 -9 25 -15 0 -33 5 -40 12 -28 28 -1 78 44 78 13 0 24 5 24 10 0 19 -69 11
-90 -10z"/>
<path d="M3730 1705 c0 -51 3 -65 15 -65 9 0 15 10 15 26 0 22 4 25 28 22 22
-2 26 -7 24 -25 -2 -16 2 -23 12 -23 13 0 16 13 16 65 0 52 -3 65 -16 65 -10
0 -14 -7 -12 -22 2 -19 -2 -24 -24 -26 -24 -3 -28 0 -28 22 0 16 -6 26 -15 26
-12 0 -15 -14 -15 -65z"/>
<path d="M3880 1706 c0 -51 3 -66 14 -66 10 0 16 14 18 43 l3 42 23 -42 c15
-29 29 -43 42 -43 18 0 20 7 20 65 0 51 -3 65 -15 65 -11 0 -15 -11 -15 -42
l0 -43 -23 40 c-14 25 -31 41 -45 43 -21 3 -22 0 -22 -62z"/>
<path d="M4050 1750 c-62 -62 30 -154 97 -98 18 15 16 83 -3 102 -22 22 -70
20 -94 -4z m69 -14 c7 -8 11 -27 9 -43 -4 -38 -43 -45 -59 -10 -20 45 21 88
50 53z"/>
<path d="M4200 1705 l0 -65 40 0 c22 0 40 5 40 10 0 6 -11 10 -25 10 -24 0
-25 3 -25 55 0 42 -3 55 -15 55 -12 0 -15 -14 -15 -65z"/>
<path d="M4316 1748 c-17 -24 -21 -65 -8 -84 24 -37 93 -39 112 -4 16 30 12
75 -8 93 -27 25 -78 22 -96 -5z m77 -19 c5 -9 7 -28 3 -43 -5 -21 -12 -27 -28
-24 -32 5 -44 31 -30 63 13 29 38 31 55 4z"/>
<path d="M4480 1750 c-51 -51 3 -132 76 -114 19 5 24 13 24 40 0 30 -3 34 -25
34 -14 0 -25 -4 -25 -10 0 -5 5 -10 10 -10 6 0 10 -7 10 -15 0 -19 -34 -19
-50 0 -18 22 -4 64 25 71 13 3 29 3 34 -1 6 -3 11 1 11 9 0 24 -65 21 -90 -4z"/>
<path d="M4620 1705 c0 -51 3 -65 15 -65 12 0 15 14 15 65 0 51 -3 65 -15 65
-12 0 -15 -14 -15 -65z"/>
<path d="M4690 1705 l0 -65 46 0 c27 0 43 4 39 10 -3 6 -17 10 -31 10 -15 0
-24 6 -24 15 0 9 9 15 25 15 16 0 25 6 25 15 0 9 -9 15 -25 15 -16 0 -25 6
-25 15 0 9 9 15 25 15 14 0 25 5 25 10 0 6 -18 10 -40 10 l-40 0 0 -65z"/>
<path d="M4810 1750 c-13 -25 -7 -36 31 -55 35 -19 30 -35 -12 -35 -36 0 -38
-17 -4 -26 29 -7 75 18 75 42 0 8 -13 23 -30 32 -37 21 -41 47 -5 38 18 -5 25
-2 25 9 0 24 -67 20 -80 -5z"/>
<path d="M5040 1755 c-7 -8 -10 -21 -7 -30 4 -8 2 -17 -3 -20 -14 -9 -12 -52
3 -62 6 -4 33 -8 59 -8 41 0 47 3 42 17 -3 10 0 26 6 38 8 16 8 20 -4 20 -7 0
-17 -8 -20 -17 -5 -11 -10 -13 -17 -6 -7 7 -7 17 2 30 7 11 9 28 6 37 -8 20
-50 21 -67 1z m40 -21 c0 -8 -4 -12 -10 -9 -5 3 -10 10 -10 16 0 5 5 9 10 9 6
0 10 -7 10 -16z m-2 -62 c2 -7 -3 -12 -12 -12 -9 0 -16 7 -16 16 0 17 22 14
28 -4z"/>
<path d="M5270 1705 c0 -51 3 -65 15 -65 12 0 15 14 15 65 0 51 -3 65 -15 65
-12 0 -15 -14 -15 -65z"/>
<path d="M5340 1704 c0 -48 3 -65 13 -62 6 3 14 22 16 44 l3 39 12 -40 c15
-52 41 -58 50 -11 10 51 26 55 26 7 0 -30 4 -41 15 -41 16 0 19 29 9 93 -9 52
-39 51 -55 -3 -14 -46 -24 -44 -33 5 -6 29 -11 35 -31 35 -24 0 -25 -3 -25
-66z"/>
<path d="M5537 1710 c-21 -72 -20 -70 -2 -70 8 0 15 7 15 15 0 9 9 15 25 15
16 0 25 -6 25 -15 0 -8 9 -15 21 -15 11 0 18 3 16 8 -3 4 -12 33 -21 65 -14
48 -20 57 -40 57 -19 0 -25 -9 -39 -60z m53 -6 c0 -8 -7 -14 -15 -14 -17 0
-18 2 -9 24 7 18 24 12 24 -10z"/>
<path d="M5882 1754 c-19 -13 -22 -24 -20 -57 2 -34 8 -44 31 -55 16 -8 40
-11 57 -7 26 6 30 11 30 41 0 30 -3 34 -25 34 -14 0 -25 -4 -25 -10 0 -5 5
-10 10 -10 6 0 10 -7 10 -15 0 -18 -31 -20 -48 -3 -32 32 4 87 49 75 12 -3 19
0 19 9 0 19 -60 18 -88 -2z"/>
<path d="M6010 1705 l0 -65 52 0 c51 0 58 15 10 22 -31 4 -29 22 3 26 31 4 28
24 -4 32 -30 7 -28 24 4 28 43 6 28 22 -20 22 l-45 0 0 -65z"/>
<path d="M6140 1705 c0 -51 3 -65 15 -65 9 0 15 10 15 26 0 31 23 28 28 -4 2
-14 11 -22 22 -22 17 0 18 4 9 29 -7 20 -7 36 -1 48 17 30 -3 53 -48 53 l-40
0 0 -65z m60 25 c0 -11 -7 -20 -15 -20 -8 0 -15 9 -15 20 0 11 7 20 15 20 8 0
15 -9 15 -20z"/>
<path d="M6270 1705 c0 -51 3 -65 15 -65 12 0 15 14 15 65 0 51 -3 65 -15 65
-12 0 -15 -14 -15 -65z"/>
<path d="M6340 1705 l0 -65 45 0 c25 0 45 5 45 10 0 6 -13 10 -30 10 -20 0
-30 5 -30 15 0 9 9 15 25 15 16 0 25 6 25 15 0 9 -9 15 -25 15 -16 0 -25 6
-25 15 0 10 10 15 31 15 17 0 28 4 24 10 -3 6 -24 10 -46 10 l-39 0 0 -65z"/>
<path d="M6510 1704 c0 -48 3 -65 13 -62 6 3 14 22 16 44 l3 39 12 -40 c14
-48 35 -52 50 -8 17 49 26 50 26 5 0 -31 4 -42 15 -42 16 0 19 29 9 93 -9 52
-39 51 -55 -3 -14 -46 -24 -44 -33 5 -6 29 -11 35 -31 35 -24 0 -25 -3 -25
-66z"/>
<path d="M6700 1705 l0 -65 40 0 c44 0 55 17 15 22 -33 4 -33 22 0 26 31 4 28
24 -4 32 -32 7 -31 24 2 28 42 5 32 22 -13 22 l-40 0 0 -65z"/>
<path d="M6820 1699 l0 -72 43 7 c104 16 102 136 -3 136 l-40 0 0 -71z m74 35
c9 -8 16 -20 16 -25 0 -23 -22 -49 -40 -49 -17 0 -20 7 -20 45 0 49 15 59 44
29z"/>
<path d="M6970 1705 c0 -51 3 -65 15 -65 12 0 15 14 15 65 0 51 -3 65 -15 65
-12 0 -15 -14 -15 -65z"/>
<path d="M7051 1744 c-26 -33 -26 -55 -3 -84 20 -24 82 -33 89 -12 3 7 -4 12
-15 12 -37 0 -52 12 -52 40 0 33 22 54 50 47 13 -3 20 0 20 9 0 9 -11 14 -34
14 -25 0 -40 -7 -55 -26z"/>
<path d="M7205 1758 c-21 -57 -35 -102 -35 -109 0 -15 28 -10 34 6 3 8 14 15
25 15 10 0 21 -7 25 -15 3 -8 13 -15 22 -15 9 0 14 6 12 13 -3 6 -13 36 -22
65 -13 39 -22 52 -37 52 -11 0 -22 -6 -24 -12z m35 -48 c0 -11 -4 -20 -10 -20
-5 0 -10 9 -10 20 0 11 5 20 10 20 6 0 10 -9 10 -20z"/>
<path d="M7320 1705 l0 -65 45 0 c25 0 45 5 45 10 0 6 -13 10 -30 10 -30 0
-30 1 -30 55 0 42 -3 55 -15 55 -12 0 -15 -14 -15 -65z"/>
<path d="M7440 1705 l0 -65 45 0 c25 0 45 5 45 10 0 6 -13 10 -30 10 -20 0
-30 5 -30 15 0 9 9 15 25 15 16 0 25 6 25 15 0 9 -10 15 -26 15 -34 0 -26 24
9 28 44 5 30 22 -18 22 l-45 0 0 -65z"/>
<path d="M8140 1740 c0 -17 7 -20 45 -20 l45 0 0 -135 c0 -128 1 -135 20 -135
19 0 20 7 20 135 l0 135 45 0 c38 0 45 3 45 20 0 19 -7 20 -110 20 -103 0
-110 -1 -110 -20z"/>
<path d="M8905 1750 c-9 -15 4 -30 26 -30 12 0 19 7 19 20 0 21 -33 29 -45 10z"/>
<path d="M9257 1754 c-16 -16 -6 -35 16 -32 12 2 22 10 22 18 0 16 -26 25 -38
14z"/>
<path d="M3140 1660 c0 -17 -7 -43 -16 -58 -13 -22 -13 -23 -1 -9 15 18 16 18
20 -5 2 -13 5 5 6 40 0 34 -1 62 -4 62 -3 0 -5 -14 -5 -30z"/>
<path d="M8708 1674 c-16 -8 -28 -10 -28 -4 0 5 -9 10 -20 10 -19 0 -20 -7
-20 -115 0 -108 1 -115 20 -115 18 0 20 7 20 78 0 83 13 115 49 125 42 11 56
-15 59 -112 3 -70 7 -91 18 -91 11 0 14 21 14 98 0 103 -3 113 -37 131 -28 14
-42 14 -75 -5z"/>
<path d="M9045 1679 c-28 -17 -35 -29 -35 -65 0 -40 13 -51 78 -65 63 -13 84
-39 50 -63 -32 -22 -65 -20 -92 7 -24 24 -46 25 -46 2 0 -24 51 -55 91 -55 52
0 85 17 100 51 16 41 -8 75 -63 89 -72 19 -76 20 -81 35 -14 35 59 51 93 20
11 -10 26 -15 36 -11 16 6 15 10 -8 32 -29 29 -92 41 -123 23z"/>
<path d="M9423 1675 c-40 -17 -63 -61 -63 -121 0 -39 5 -51 34 -80 45 -45 92
-47 138 -4 27 24 30 31 19 39 -11 7 -21 3 -38 -15 -37 -40 -93 -28 -111 25 -6
16 -8 32 -5 35 4 3 44 6 90 6 l85 0 -7 33 c-11 50 -24 68 -60 83 -41 17 -42
17 -82 -1z m81 -36 c45 -35 34 -49 -39 -49 -50 0 -65 3 -65 14 0 16 46 56 65
56 7 0 24 -9 39 -21z"/>
<path d="M8380 1582 c0 -90 2 -100 23 -120 28 -26 73 -28 100 -4 15 12 21 14
24 5 3 -7 11 -13 19 -13 11 0 14 22 14 115 0 108 -1 115 -20 115 -18 0 -20 -7
-20 -79 0 -70 -3 -83 -24 -108 -21 -24 -26 -26 -50 -15 -25 11 -26 14 -26 107
0 88 -1 95 -20 95 -19 0 -20 -7 -20 -98z"/>
<path d="M8910 1565 c0 -108 1 -115 20 -115 19 0 20 7 20 115 0 108 -1 115
-20 115 -19 0 -20 -7 -20 -115z"/>
<path d="M9260 1566 c0 -110 1 -116 20 -116 20 0 21 5 18 112 -3 98 -5 113
-20 116 -16 3 -18 -7 -18 -112z"/>
</g>
</svg>
